PathFileType	4	(X/Y/Z)	Run_500 02
DataRate	CameraRate	NumFrames	NumMarkers	Units	OrigDataRate	OrigDataStartFrame	OrigNumFrames
120	120	5	42	mm	120	94	128
Frame#	Time	LASI			RASI			LPSI			RPSI			RTH1			RTH2			RTH3			LTH1			LTH2			LTH3			RTB1			RTB2			LTB1			LTB2			LTB3			RCAL			RTOE			RMT5			LCAL			LTOE			LMT5			LACR			RACR			CLAV			C7			RUA1			RUA2			RUA3			RLEL			RMEL			LUA1			LUA2			LUA3			LLEL			LMEL			RFAsuperior			RFAradius			RFAulna			LFAsuperior			LFAradius			LFAulna			RTB3			
		X1	Y1	Z1	X2	Y2	Z2	X3	Y3	Z3	X4	Y4	Z4	X5	Y5	Z5	X6	Y6	Z6	X7	Y7	Z7	X8	Y8	Z8	X9	Y9	Z9	X10	Y10	Z10	X11	Y11	Z11	X12	Y12	Z12	X13	Y13	Z13	X14	Y14	Z14	X15	Y15	Z15	X16	Y16	Z16	X17	Y17	Z17	X18	Y18	Z18	X19	Y19	Z19	X20	Y20	Z20	X21	Y21	Z21	X22	Y22	Z22	X23	Y23	Z23	X24	Y24	Z24	X25	Y25	Z25	X26	Y26	Z26	X27	Y27	Z27	X28	Y28	Z28	X29	Y29	Z29	X30	Y30	Z30	X31	Y31	Z31	X32	Y32	Z32	X33	Y33	Z33	X34	Y34	Z34	X35	Y35	Z35	X36	Y36	Z36	X37	Y37	Z37	X38	Y38	Z38	X39	Y39	Z39	X40	Y40	Z40	X41	Y41	Z41	X42	Y42	Z42	

89	0.9	945.391113	1004.238756	-762.786568	913.974454	1034.357525	-503.113404	757.055666	1051.868931	-694.366324	742.272547	1051.564659	-614.242976	880.127612	868.577306	-452.497282	972.550947	786.242267	-459.275351	955.413649	660.536681	-507.007807	879.799533	787.876967	-804.569344	929.47403	662.326914	-793.933499	865.0590089999999	560.593623	-768.815656	1068.937221	400.137113	-600.974705	1039.04892	335.817467	-534.746801	766.318535	456.207214	-698.202394	690.513571	514.869779	-743.112969	585.290068	545.978822	-672.7082360000001	867.0306890000001	105.613602	-628.896828	1100.868835	70.525239	-646.003334	1029.244361	51.823033	-549.460635	512.836754	694.765517	-644.99161	384.515165	499.429337	-651.07221	396.577625	580.261586	-730.3252189999999	990.231035	1479.970246	-787.4284239999999	936.608711	1475.86975	-442.820101	1005.124847	1424.27952	-573.918872	886.9312629999999	1523.614372	-620.854693	892.66449	1384.89651	-358.036781	879.44483	1297.870256	-347.330371	804.656524	1308.600715	-323.723142	760.022994	1192.474598	-256.960142	734.76337	1169.883608	-331.254512	972.403619	1389.791399	-866.047338	966.480723	1318.839129	-861.2951849999999	873.3210780000001	1327.593639	-889.328051	852.522418	1171.078401	-952.940103	788.5106520000001	1169.958191	-891.201773	857.7093630000001	1147.932198	-250.3059	1003.313397	1067.933386	-330.826259	985.70293	1042.249799	-264.803437	932.802414	1136.476666	-906.417166	1039.121986	1105.164171	-760.501133	1030.894195	1040.353394	-791.472854	1020.558862	239.98553	-610.035215	
90	0.9083329999999999	941.023808	999.792453	-762.963561	910.710071	1033.683886	-501.92617	753.3916850000001	1049.800287	-694.798457	739.22364	1050.448906	-615.069619	872.005944	866.396313	-452.792148	963.070579	781.8059	-459.875061	942.19805	656.452005	-508.132855	887.312057	784.7415569999999	-803.694705	947.377263	662.758478	-792.345532	890.314181	557.489591	-768.894155	1045.640147	391.598618	-600.563006	1010.961007	329.423621	-534.166531	798.375195	453.685284	-697.058263	722.512246	510.270036	-743.848107	616.981812	541.614323	-673.8372000000001	826.734268	106.333464	-628.279926	1060.211113	69.193939	-645.841312	988.394757	50.832258	-549.201317	539.260998	691.220008	-649.5065059999999	417.717046	491.665281	-651.7075170000001	428.378223	570.502242	-733.23314	987.231451	1475.234261	-788.27535	939.022399	1471.164024	-442.309069	1005.33713	1420.109096	-575.6650509999999	887.292434	1520.521115	-619.638276	899.921845	1378.177185	-356.850473	891.349205	1289.959787	-346.251708	817.627116	1297.772926	-318.70525	781.1791469999999	1179.872693	-250.149634	753.296619	1155.582585	-323.423457	968.177234	1384.620155	-866.0504570000001	961.38234	1313.678215	-860.856925	868.730085	1324.687502	-889.590319	844.145496	1169.428234	-954.091426	780.391664	1168.914955	-892.15963	881.552354	1138.224296	-247.829082	1024.792871	1063.228724	-332.27005	1010.047561	1036.565742	-265.59598	923.224239	1130.350638	-907.5028569999999	1029.110382	1087.815873	-766.382822	1017.707581	1024.566718	-799.456438	988.121741	234.967453	-609.218361	
91	0.916667	937.193729	996.6145	-763.38605	907.814182	1033.324512	-501.195943	750.2712770000001	1048.507472	-695.153599	736.9246439999999	1050.475496	-615.548041	864.351734	864.946806	-452.774566	953.305688	777.163372	-460.17259	927.29932	652.35804	-508.677785	895.348571	783.112058	-802.901699	966.704742	666.14598	-790.640569	917.11269	557.718106	-769.031221	1019.976199	381.491619	-599.91267	981.379289	321.201274	-534.117173	830.6756370000001	452.974579	-695.681402	754.80324	506.564691	-744.373814	647.99594	536.1577150000001	-675.060732	786.166244	107.199433	-627.30003	1019.119534	68.027834	-645.480684	947.268533	49.862701	-548.699043	562.675823	685.300265	-654.1439319999999	451.683572	479.816213	-651.797871	459.237661	556.686883	-735.615287	984.166097	1471.403414	-788.7837950000001	942.549973	1467.060964	-442.430858	1005.169546	1416.328587	-577.588489	887.134217	1518.00018	-618.478747	907.247946	1373.433991	-356.480419	903.335771	1284.001287	-345.678679	830.291113	1289.333802	-315.968855	802.705216	1170.082735	-244.700281	772.006353	1143.950717	-316.833684	963.659134	1381.098311	-866.038107	956.146145	1310.045042	-860.546419	864.020994	1323.373578	-889.317313	835.557636	1169.325153	-955.280697	771.445608	1169.457425	-893.4948419999999	905.764224	1131.943944	-247.221906	1046.986276	1062.999956	-335.726037	1034.981809	1034.358413	-269.183354	914.280425	1127.332712	-907.966222	1018.323492	1074.217177	-772.343064	1004.159844	1012.571859	-807.230318	953.627595	229.246911	-608.750208	
92	0.925	934.129657	994.6418640000001	-763.616457	905.091006	1032.867493	-500.946027	747.747369	1047.780956	-695.3830349999999	734.96425	1051.226633	-615.711412	857.314539	864.348965	-452.285465	943.186784	772.620526	-459.641203	911.541229	648.5612170000001	-508.137497	903.517161	783.211863	-802.087297	986.277243	672.771463	-788.930023	944.375284	561.367545	-768.871567	992.382619	371.866349	-599.204615	951.209367	313.175376	-534.340417	862.565952	454.51855	-694.000289	786.572074	503.93525	-744.464949	677.733832	529.831488	-676.19067	745.328785	108.559448	-626.340736	977.567041	67.295198	-645.034014	905.7466920000001	49.204643	-548.236677	583.306879	676.54837	-658.425191	485.86205	464.340439	-651.581845	489.180233	539.386059	-737.476506	981.059992	1468.626299	-789.214531	947.062707	1463.797927	-443.041782	1004.835442	1413.207268	-579.522904	886.621404	1516.107005	-617.252691	915.114155	1369.89494	-356.505288	915.139168	1279.891493	-345.414129	842.23412	1282.945941	-315.238959	823.7215179999999	1162.984684	-240.737137	790.353465	1134.97739	-311.575988	958.811516	1379.036248	-866.340238	950.370369	1307.874573	-860.725451	858.821165	1323.707895	-888.772109	826.198358	1170.982554	-956.7370529999999	761.566596	1171.757739	-895.214861	928.9461250000001	1129.099208	-248.223556	1068.95427	1067.542261	-341.356232	1059.887968	1036.28485	-275.59284	905.130062	1127.111613	-908.970923	1006.997479	1065.312204	-778.291499	990.682895	1005.147812	-814.6110619999999	917.766404	224.435384	-608.618485	
93	0.933333	931.886303	993.8498520000001	-763.493185	902.654504	1032.212772	-500.992211	745.879689	1047.681552	-695.546125	733.230665	1052.449698	-615.720775	850.908675	864.390745	-451.458641	932.495105	768.3962330000001	-458.490121	895.269631	645.119946	-506.41664	911.423469	785.235635	-801.225735	1004.964404	682.651221	-787.292334	970.948248	568.413246	-768.296279	963.149909	364.064909	-597.994146	920.296791	306.832554	-533.9668359999999	894.009194	458.377084	-692.104065	817.205856	502.453822	-744.028949	706.0642329999999	522.737286	-676.921093	704.2914469999999	110.490799	-625.49674	935.665883	66.934405	-644.4107299999999	863.822056	48.813864	-547.808578	601.64359	664.524458	-661.941518	520.02562	445.679646	-651.321916	518.464153	519.0838	-738.882801	977.777067	1467.140158	-789.836198	952.121117	1461.741178	-443.931346	1004.530508	1411.108922	-581.35886	886.112748	1515.01738	-615.974879	923.8020330000001	1367.156975	-356.744242	926.627506	1277.516277	-345.515492	853.5647	1278.29391	-315.672491	843.643768	1158.157675	-238.290721	808.234386	1128.378886	-307.833789	953.403043	1378.403814	-867.1814409999999	943.6940530000001	1307.280916	-861.711677	852.5827430000001	1325.744485	-888.317227	815.655041	1174.581902	-958.519897	750.941182	1175.883713	-897.052835	950.214263	1129.312567	-250.503716	1089.651397	1076.586686	-349.09974	1084.109282	1042.788967	-284.341353	894.629986	1129.047891	-911.485087	995.349614	1061.553345	-784.086954	977.646519	1002.614281	-821.49443	881.265481	221.195998	-608.204293	
